<svg width="163" height="193" viewBox="0 0 163 193" fill="none" xmlns="http://www.w3.org/2000/svg">
<path d="M104.325 183.187C104.325 185.789 103.294 188.285 101.46 190.126C99.626 191.966 97.1384 193 94.5445 193H68.4638C65.87 193 63.3823 191.966 61.5482 190.126C59.714 188.285 58.6836 185.789 58.6836 183.187C58.6836 180.584 59.714 178.088 61.5482 176.248C63.3823 174.408 65.87 173.374 68.4638 173.374H94.5445C97.1384 173.374 99.626 174.408 101.46 176.248C103.294 178.088 104.325 180.584 104.325 183.187ZM81.5042 91.5977C84.0833 91.5977 86.6045 90.8303 88.749 89.3926C90.8935 87.9549 92.5649 85.9114 93.5519 83.5206C94.5389 81.1298 94.7971 78.499 94.2939 75.9609C93.7908 73.4228 92.5488 71.0914 90.7251 69.2616C88.9013 67.4317 86.5778 66.1856 84.0482 65.6807C81.5186 65.1759 78.8967 65.435 76.5138 66.4253C74.131 67.4156 72.0944 69.0926 70.6615 71.2443C69.2286 73.396 68.4638 75.9257 68.4638 78.5135C68.4638 81.9836 69.8377 85.3116 72.2833 87.7654C74.7288 90.2192 78.0457 91.5977 81.5042 91.5977Z" fill="#479C6E"/>
<path d="M162.619 124.881L152.545 170.373C151.953 173.088 150.677 175.606 148.839 177.686C147.001 179.766 144.663 181.339 142.048 182.255C140.296 182.872 138.452 183.188 136.595 183.187C132.961 183.184 129.432 181.954 126.579 179.695L105.274 163.561H57.7259L36.4212 179.703C33.5665 181.959 30.0385 183.186 26.4046 183.187C24.5472 183.185 22.7036 182.867 20.9521 182.247C18.3367 181.33 15.9987 179.757 14.1611 177.677C12.3234 175.597 11.0474 173.08 10.4547 170.365L0.381025 124.881C-0.15309 122.439 -0.125335 119.908 0.462181 117.479C1.0497 115.051 2.1815 112.788 3.77151 110.864L26.4535 83.5511C27.3212 73.3175 29.6971 63.2696 33.5035 53.7355C44.3188 26.545 63.6592 9.49468 71.516 3.4269C74.3733 1.20549 77.8854 0 81.5 0C85.1146 0 88.6267 1.20549 91.484 3.4269C99.3082 9.49468 118.681 26.545 129.497 53.7355C133.303 63.2696 135.679 73.3175 136.546 83.5511L159.228 110.864C160.818 112.788 161.95 115.051 162.538 117.479C163.125 119.908 163.153 122.439 162.619 124.881ZM60.1383 143.935H102.862C118.763 114.74 121.607 86.8712 111.33 61.0136C103.017 40.0789 88.1832 26.0952 81.5 20.5508C74.8168 26.0952 59.9835 40.0789 51.6703 61.0136C41.3847 86.8712 44.2373 114.74 60.1383 143.935ZM41.7596 151.065C35.2568 138.938 30.6081 125.899 27.9695 112.385L19.8193 122.198L28.4422 161.157L41.7596 151.065ZM143.173 122.19L135.022 112.377C132.384 125.891 127.735 138.93 121.232 151.057L134.542 161.14L143.173 122.19Z" fill="#9359F3"/>
</svg>
